<svg width="29" height="27" viewBox="0 0 29 27" fill="none" xmlns="http://www.w3.org/2000/svg">
<path d="M27.6289 16.8122H25.4207V11.6735C25.4207 11.5093 25.3722 11.3504 25.2753 11.2179L22.2592 6.97985C22.1084 6.76795 21.8606 6.6408 21.5967 6.6408C21.4297 6.6408 21.2682 6.68848 21.1335 6.78384C21.0581 6.83681 20.9881 6.90039 20.9342 6.97985L17.9181 11.2179C17.8212 11.3504 17.7727 11.5093 17.7727 11.6735V13.337C17.3634 12.9396 16.8948 12.59 16.3724 12.2827C17.2072 11.1597 17.6596 9.75579 17.6596 8.27776C17.6596 7.64735 17.5788 7.02223 17.4119 6.41301C18.8661 5.48593 19.3831 3.59469 18.5591 2.05839C17.972 0.967081 16.8194 0.283691 15.5591 0.283691C15.0098 0.283691 14.4658 0.416131 13.9757 0.670416C13.4425 0.945891 13.0008 1.34851 12.6884 1.84648C11.956 1.65047 11.2073 1.55511 10.4533 1.55511H10.3887H10.324C9.57001 1.55511 8.82137 1.65047 8.08889 1.84648C7.4749 0.877022 6.39772 0.283691 5.21821 0.283691C4.68501 0.283691 4.16797 0.405536 3.68862 0.643928C2.019 1.47565 1.34576 3.48344 2.19135 5.12569C2.46603 5.65545 2.86458 6.09515 3.36547 6.4183C3.19851 7.02753 3.11233 7.65264 3.11772 8.28306C3.11772 9.76109 3.57552 11.1649 4.40495 12.288C2.43371 13.4376 1.25959 15.2335 1.01184 17.5115C1.01184 17.5221 1.01184 17.5274 1.01184 17.538L0.96875 18.1207C0.96875 18.1578 0.96875 18.1949 0.96875 18.2319C1.03877 19.2597 1.65276 20.1656 2.56836 20.6265C2.36369 21.1509 2.25598 21.7125 2.25598 22.274C2.25598 24.5838 3.97408 26.4591 6.07996 26.4591C7.08173 26.4591 8.04042 26.03 8.75136 25.2671C9.26302 25.4949 9.82315 25.6115 10.3887 25.6115C10.9542 25.6115 11.5143 25.4949 12.026 25.2671C12.7369 26.03 13.6956 26.4591 14.6974 26.4591C16.0869 26.4591 17.3418 25.6539 18.0205 24.3401H27.6289C28.0759 24.3401 28.4368 23.9851 28.4368 23.5454V17.6068C28.4368 17.1671 28.0759 16.8122 27.6289 16.8122ZM21.5967 8.82341L23.0617 10.8789H20.1317L21.5967 8.82341ZM19.3885 12.4682H23.8049V16.8122H19.6578C19.5931 16.4837 19.5016 16.1606 19.3885 15.848V12.4682ZM15.5591 1.87297V1.50214V1.87297C16.5393 1.87297 17.3365 2.65701 17.3365 3.62118C17.3365 4.10855 17.1264 4.56944 16.7763 4.8979C16.4855 4.39462 16.1246 3.93373 15.7045 3.52582C15.2683 3.10201 14.7728 2.74707 14.2396 2.4557C14.5735 2.09017 15.0528 1.87297 15.5591 1.87297ZM10.3887 3.14439C12.1014 3.14439 13.5502 3.66885 14.5681 4.65421C15.516 5.57069 16.0438 6.8633 16.0438 8.28306C16.0438 9.70281 15.5214 10.9954 14.5681 11.9119C13.5448 12.8973 12.1014 13.4217 10.3887 13.4217C8.67595 13.4217 7.22715 12.8973 6.20922 11.9119C5.2613 10.9954 4.73349 9.70281 4.73349 8.28306C4.73349 6.8633 5.25592 5.57069 6.20922 4.65421C7.22715 3.66885 8.67595 3.14439 10.3887 3.14439ZM4.001 4.8926C3.65092 4.56415 3.44087 4.10326 3.44087 3.62118C3.44087 3.15499 3.62399 2.71529 3.9633 2.38684C4.29723 2.05839 4.74426 1.87297 5.21821 1.87297V1.50214V1.87297C5.72987 1.87297 6.20922 2.09017 6.54314 2.4557C6.00455 2.74178 5.51444 3.10201 5.07818 3.52582C4.6527 3.92844 4.29184 4.38933 4.001 4.8926ZM3.4301 19.2597C2.96691 19.0796 2.63838 18.6663 2.58452 18.1684L2.62222 17.6651C2.83227 15.8003 3.84481 14.3594 5.56291 13.4747C5.91838 13.7555 6.30078 13.9992 6.70472 14.2005C5.92377 15.2706 5.42288 16.685 5.30439 18.1737C4.59884 18.3326 3.94715 18.7087 3.4301 19.2597ZM6.08534 24.8645C4.86813 24.8645 3.87713 23.6991 3.87713 22.2687C3.87713 20.8384 4.86813 19.6729 6.08534 19.6729C7.30255 19.6729 8.29356 20.8384 8.29356 22.2687C8.29356 23.6991 7.30255 24.8645 6.08534 24.8645ZM10.8788 22.2687C10.8788 22.8197 10.9811 23.3706 11.175 23.8845C10.9219 23.9692 10.658 24.0169 10.3941 24.0169C10.1301 24.0169 9.86085 23.9692 9.6131 23.8845C9.81238 23.3706 9.91471 22.8144 9.90932 22.2687C9.90932 20.3033 8.64902 18.6081 6.92554 18.1843C7.04942 16.8281 7.54492 15.6096 8.30433 14.7726C8.97218 14.9315 9.65619 15.011 10.3402 15.011H10.4425C11.1319 15.011 11.8159 14.9315 12.4838 14.7726C13.2486 15.6096 13.7387 16.8281 13.8626 18.1843C12.1391 18.6081 10.8788 20.3033 10.8788 22.2687ZM14.7028 24.8645C13.4856 24.8645 12.4945 23.6991 12.4945 22.2687C12.4945 20.8384 13.4856 19.6729 14.7028 19.6729C15.92 19.6729 16.911 20.8384 16.911 22.2687C16.911 23.6991 15.92 24.8645 14.7028 24.8645ZM15.4837 18.1737C15.3652 16.6639 14.8751 15.2759 14.0834 14.1952C14.4873 13.9939 14.8643 13.7502 15.2198 13.4747C16.9379 14.3541 17.9505 15.8003 18.1605 17.6651L18.1982 18.1737C18.1443 18.6663 17.8212 19.0849 17.3634 19.265C16.8356 18.7087 16.1839 18.3326 15.4837 18.1737ZM26.821 22.7455H22.4046V18.4015H26.821V22.7455Z" fill="#4F76C1"/>
</svg>
