<svg width="17" height="17" viewBox="0 0 17 17" fill="none" xmlns="http://www.w3.org/2000/svg">
<g clip-path="url(#clip0)">
<path d="M3.11075 15.1088C3.03275 15.5528 3.47075 15.8998 3.85675 15.7018L8.24675 13.4458L12.6357 15.7018C13.0217 15.8998 13.4597 15.5528 13.3817 15.1098L12.5517 10.3798L16.0737 7.02383C16.4037 6.70983 16.2337 6.13583 15.7917 6.07383L10.8937 5.37783L8.70975 1.05083C8.66814 0.963123 8.6025 0.889017 8.52046 0.837127C8.43841 0.785236 8.34333 0.75769 8.24625 0.75769C8.14917 0.75769 8.05408 0.785236 7.97204 0.837127C7.88999 0.889017 7.82435 0.963123 7.78275 1.05083L5.59875 5.37883L0.700747 6.07483C0.259747 6.13683 0.0887472 6.71083 0.417747 7.02483L3.94075 10.3808L3.11075 15.1108V15.1088ZM8.01575 12.3418L4.32975 14.2358L5.02375 10.2788C5.04 10.1877 5.03364 10.0941 5.00522 10.006C4.9768 9.91795 4.92719 9.83823 4.86075 9.77383L1.95475 7.00383L6.00675 6.42783C6.09065 6.41516 6.17023 6.38234 6.23868 6.33219C6.30713 6.28203 6.36239 6.21603 6.39975 6.13983L8.24475 2.48183L10.0917 6.13983C10.1291 6.21603 10.1844 6.28203 10.2528 6.33219C10.3213 6.38234 10.4008 6.41516 10.4847 6.42783L14.5367 7.00283L11.6307 9.77283C11.5641 9.83733 11.5144 9.91722 11.486 10.0055C11.4576 10.0937 11.4513 10.1876 11.4677 10.2788L12.1617 14.2358L8.47575 12.3418C8.40447 12.3051 8.32544 12.2859 8.24525 12.2859C8.16505 12.2859 8.08602 12.3051 8.01475 12.3418H8.01575Z" fill="#F3A347"/>
</g>
<defs>
<clipPath id="clip0">
<rect width="16" height="16" fill="white" transform="translate(0.245117 0.258789)"/>
</clipPath>
</defs>
</svg>
