<svg width="34" height="32" viewBox="0 0 34 32" fill="none" xmlns="http://www.w3.org/2000/svg">
<path d="M1.68018 1.08667L3.00988 5.33926L1.68018 1.08667ZM3.00988 5.33926L8.32871 22.3496H32.7067V9.59184C32.7067 8.46399 32.2397 7.38233 31.4085 6.58481C30.5772 5.7873 29.4498 5.33926 28.2743 5.33926H3.00988ZM28.2743 30.8548C27.6865 30.8548 27.1228 30.6308 26.7072 30.232C26.2916 29.8332 26.0581 29.2924 26.0581 28.7285C26.0581 28.1646 26.2916 27.6237 26.7072 27.225C27.1228 26.8262 27.6865 26.6022 28.2743 26.6022C28.8621 26.6022 29.4258 26.8262 29.8414 27.225C30.257 27.6237 30.4905 28.1646 30.4905 28.7285C30.4905 29.2924 30.257 29.8332 29.8414 30.232C29.4258 30.6308 28.8621 30.8548 28.2743 30.8548ZM10.5449 28.7285C10.5449 28.1646 10.7784 27.6237 11.194 27.225C11.6096 26.8262 12.1733 26.6022 12.7611 26.6022C13.3488 26.6022 13.9125 26.8262 14.3281 27.225C14.7438 27.6237 14.9772 28.1646 14.9772 28.7285C14.9772 29.2924 14.7438 29.8332 14.3281 30.232C13.9125 30.6308 13.3488 30.8548 12.7611 30.8548C12.1733 30.8548 11.6096 30.6308 11.194 30.232C10.7784 29.8332 10.5449 29.2924 10.5449 28.7285Z" stroke="#4F76C1" stroke-width="2"/>
</svg>
