<svg width="112" height="112" viewBox="0 0 112 112" fill="none" xmlns="http://www.w3.org/2000/svg">
<path d="M55.7646 111.708C86.507 111.708 111.429 86.7862 111.429 56.0438C111.429 25.3014 86.507 0.379761 55.7646 0.379761C25.0222 0.379761 0.100586 25.3014 0.100586 56.0438C0.100586 86.7862 25.0222 111.708 55.7646 111.708Z" fill="url(#paint0_linear)"/>
<path d="M55.7649 26.012C49.4198 32.6941 40.1806 33.7329 35.0462 33.7329C33.7767 33.7437 32.5076 33.6729 31.2471 33.5206V59.7985C31.2471 75.284 55.7649 86.0754 55.7649 86.0754C55.7649 86.0754 80.2826 75.283 80.2826 59.7976V33.5196C79.0224 33.6719 77.7537 33.7429 76.4844 33.732C71.3491 33.7329 62.1135 32.6941 55.7649 26.012Z" fill="black"/>
<path d="M55.7652 30.1145C50.2869 35.8838 42.3098 36.7807 37.8768 36.7807C36.7807 36.79 35.685 36.7289 34.5967 36.5974V59.2856C34.5967 72.6557 55.7652 81.9729 55.7652 81.9729C55.7652 81.9729 76.9337 72.6549 76.9337 59.2848V36.5966C75.8456 36.7281 74.7502 36.7893 73.6543 36.7799C69.2205 36.7807 61.2466 35.8838 55.7652 30.1145Z" fill="#F3BD58"/>
<path d="M64.8125 53.2573H46.7178V59.3806V65.5038H64.8125V53.2573Z" fill="#F0913A"/>
<path d="M61.0399 52.8592V46.6489C61.0399 43.7356 58.6781 41.3739 55.7649 41.3739C52.8517 41.3739 50.4899 43.7355 50.4899 46.6489V52.8592H46.3154V65.9031H65.2116V52.8592H61.0399ZM51.2872 46.6489C51.2872 44.1759 53.2919 42.1711 55.765 42.1711C58.238 42.1711 60.2427 44.1759 60.2427 46.6489V52.8592H51.2874L51.2872 46.6489ZM64.4142 65.1059H47.1128V53.6565H64.4143V65.1059H64.4142Z" fill="#1A1718"/>
<path d="M56.1635 57.162H55.3662V61.731H56.1635V57.162Z" fill="#1A1718"/>
<defs>
<linearGradient id="paint0_linear" x1="21.8533" y1="17.0844" x2="84.9606" y2="99.4951" gradientUnits="userSpaceOnUse">
<stop stop-color="#5077C1"/>
<stop offset="1" stop-color="#719AE8"/>
</linearGradient>
</defs>
</svg>
