<svg width="155" height="155" viewBox="0 0 155 155" fill="none" xmlns="http://www.w3.org/2000/svg">
<circle cx="77.2171" cy="77.8118" r="76.9427" fill="url(#paint0_linear)"/>
<circle cx="77.2168" cy="77.812" r="64.4922" transform="rotate(90 77.2168 77.812)" fill="url(#paint1_linear)"/>
<path d="M47.9825 95.8338C47.9825 95.0338 47.3025 94.3538 46.5025 94.3538H36.3425C37.0225 93.7938 37.7025 93.2338 38.3425 92.6338C38.9425 92.0738 39.8225 91.1938 40.9825 89.9538C42.1025 88.7138 43.0625 87.5138 43.8625 86.3538C45.4625 83.9938 46.9025 80.5538 46.9025 77.6338C46.9025 75.6338 46.2225 73.9138 44.8225 72.4738C43.4225 71.0338 41.5025 70.3138 38.9825 70.3138C35.0225 70.3138 32.7425 71.7938 30.8625 75.3138C30.7425 75.5138 30.7025 75.7138 30.7025 75.9138C30.7025 76.5138 30.9825 76.9538 31.5025 77.2338L32.5825 77.7938C32.8625 77.9138 33.1025 77.9938 33.3425 77.9938C33.9425 77.9938 34.3825 77.7138 34.7025 77.1938C35.7025 75.6738 36.9825 74.9138 38.4625 74.9138C40.7425 74.9138 42.0225 76.2738 42.0225 78.5538C42.0225 80.9138 40.7825 83.6738 38.4225 86.5538C37.2225 87.9938 36.1425 89.2338 35.1425 90.2738C34.1425 91.3138 32.9025 92.5138 31.4625 93.8738C30.5425 94.7138 30.1025 95.5538 30.1025 96.3138V97.1538C30.1025 97.9538 30.7825 98.6338 31.5825 98.6338H46.5025C47.3025 98.6338 47.9825 97.9538 47.9825 97.1538V95.8338ZM53.9247 95.1138C55.5247 97.6738 57.8847 98.9538 61.0047 98.9538C67.2047 98.9538 70.2847 93.5538 70.2847 84.6338C70.2847 75.7938 67.1247 70.3138 60.9247 70.3138C57.8047 70.3138 55.4447 71.5938 53.8847 74.1538C52.3247 76.7138 51.5247 80.1938 51.5247 84.6338C51.5247 89.0738 52.3247 92.5538 53.9247 95.1138ZM56.4447 84.6338C56.4447 77.7938 57.7647 74.6338 60.9247 74.6338C64.1247 74.6338 65.4047 77.6338 65.4047 84.6338C65.4047 91.6738 64.1647 94.6738 61.0047 94.6738C57.9647 94.6738 56.4447 91.3138 56.4447 84.6338ZM76.0341 95.1138C77.6341 97.6738 79.9941 98.9538 83.1141 98.9538C89.3141 98.9538 92.3941 93.5538 92.3941 84.6338C92.3941 75.7938 89.2341 70.3138 83.0341 70.3138C79.9141 70.3138 77.5541 71.5938 75.9941 74.1538C74.4341 76.7138 73.6341 80.1938 73.6341 84.6338C73.6341 89.0738 74.4341 92.5538 76.0341 95.1138ZM78.5541 84.6338C78.5541 77.7938 79.8741 74.6338 83.0341 74.6338C86.2341 74.6338 87.5141 77.6338 87.5141 84.6338C87.5141 91.6738 86.2741 94.6738 83.1141 94.6738C80.0741 94.6738 78.5541 91.3138 78.5541 84.6338Z" fill="white"/>
<path d="M111.987 45.7794L111.926 43.0815L110.027 44.0462L109.973 45.7907C102.574 46.5094 96.7393 54.6554 96.7393 64.6053C96.7393 65.2463 96.7633 65.8794 96.8114 66.5046H99.4024C99.3781 66.0473 99.3621 65.5864 99.3621 65.1202C99.3621 56.0952 103.995 48.6879 109.907 47.8953L109.377 64.8466L112.384 63.3996L112.034 47.8986C117.933 48.7095 122.553 56.1087 122.553 65.1205C122.553 65.5867 122.538 66.0476 122.513 66.5049H125.261C125.308 65.8803 125.332 65.2472 125.333 64.6056C125.332 54.605 119.439 46.4258 111.987 45.7794Z" fill="white"/>
<defs>
<linearGradient id="paint0_linear" x1="30.5902" y1="24.422" x2="126.223" y2="133.503" gradientUnits="userSpaceOnUse">
<stop stop-color="#F2C15A"/>
<stop offset="1" stop-color="#EF8834"/>
</linearGradient>
<linearGradient id="paint1_linear" x1="38.1348" y1="33.0614" x2="118.293" y2="124.492" gradientUnits="userSpaceOnUse">
<stop stop-color="#F2C15A"/>
<stop offset="1" stop-color="#EF8834"/>
</linearGradient>
</defs>
</svg>
