<svg width="22" height="18" viewBox="0 0 22 18" fill="none" xmlns="http://www.w3.org/2000/svg">
<path d="M11.5173 2.03687L11.4729 0.0513916L10.0752 0.761347L10.0349 2.0452C4.58973 2.57411 0.295898 8.56919 0.295898 15.8918C0.295898 16.3635 0.313595 16.8295 0.34899 17.2896H2.25583C2.23795 16.953 2.22617 16.6138 2.22617 16.2707C2.22617 9.62879 5.636 4.1774 9.98659 3.59406L9.59696 16.0694L11.8095 15.0044L11.5522 3.5965C15.8936 4.19328 19.2938 9.63868 19.2938 16.271C19.2938 16.6141 19.2821 16.9533 19.2641 17.2898H21.2863C21.3213 16.8301 21.3389 16.3642 21.3392 15.892C21.339 8.53209 17.0021 2.51258 11.5173 2.03687Z" fill="#4F76C1" fill-opacity="0.5"/>
</svg>
