<svg width="22" height="19" viewBox="0 0 22 19" fill="none" xmlns="http://www.w3.org/2000/svg">
<path d="M11.9656 2.96826L11.9212 0.982788L10.5235 1.69274L10.4831 2.97659C5.03797 3.50551 0.744141 9.50059 0.744141 16.8232C0.744141 17.2949 0.761838 17.7609 0.797232 18.221H2.70407C2.68619 17.8844 2.67441 17.5452 2.67441 17.2021C2.67441 10.5602 6.08424 5.10879 10.4348 4.52546L10.0452 17.0008L12.2577 15.9358L12.0005 4.5279C16.3418 5.12468 19.742 10.5701 19.742 17.2024C19.742 17.5455 19.7303 17.8847 19.7123 18.2212H21.7346C21.7695 17.7615 21.7872 17.2956 21.7875 16.8234C21.7872 9.46349 17.4503 3.44397 11.9656 2.96826Z" fill="#4F76C1"/>
</svg>
