<svg width="68" height="68" viewBox="0 0 68 68" fill="none" xmlns="http://www.w3.org/2000/svg">
<circle cx="33.6447" cy="34.0668" r="33.5207" fill="#4F76C1"/>
<path d="M19.8537 35.7207C20.8058 35.7207 21.5775 34.9802 21.5775 34.0668C21.5775 33.1533 20.8058 32.4128 19.8537 32.4128C18.9017 32.4128 18.1299 33.1533 18.1299 34.0668C18.1299 34.9802 18.9017 35.7207 19.8537 35.7207Z" fill="white"/>
<path d="M47.5386 32.4128H26.6458C25.7509 32.4128 25.0254 33.1089 25.0254 33.9675V34.166C25.0254 35.0246 25.7509 35.7207 26.6458 35.7207H47.5386C48.4335 35.7207 49.159 35.0246 49.159 34.166V33.9675C49.159 33.1089 48.4335 32.4128 47.5386 32.4128Z" fill="white"/>
<path d="M47.5384 40.6824H19.7503C18.8554 40.6824 18.1299 41.3784 18.1299 42.237V42.4355C18.1299 43.2941 18.8554 43.9902 19.7503 43.9902H47.5384C48.4333 43.9902 49.1588 43.2941 49.1588 42.4355V42.237C49.1588 41.3784 48.4333 40.6824 47.5384 40.6824Z" fill="white"/>
<path d="M47.5384 24.1433H19.7503C18.8554 24.1433 18.1299 24.8394 18.1299 25.698V25.8965C18.1299 26.7551 18.8554 27.4511 19.7503 27.4511H47.5384C48.4333 27.4511 49.1588 26.7551 49.1588 25.8965V25.698C49.1588 24.8394 48.4333 24.1433 47.5384 24.1433Z" fill="white"/>
</svg>
