<svg width="68" height="68" viewBox="0 0 68 68" fill="none" xmlns="http://www.w3.org/2000/svg">
<circle cx="33.9406" cy="33.9982" r="33.5207" fill="url(#paint0_linear)"/>
<path d="M20.1496 35.6521C21.1017 35.6521 21.8734 34.9116 21.8734 33.9982C21.8734 33.0847 21.1017 32.3442 20.1496 32.3442C19.1976 32.3442 18.4258 33.0847 18.4258 33.9982C18.4258 34.9116 19.1976 35.6521 20.1496 35.6521Z" fill="white"/>
<path d="M47.8345 32.3442H26.9417C26.0468 32.3442 25.3213 33.0403 25.3213 33.8989V34.0974C25.3213 34.956 26.0468 35.6521 26.9417 35.6521H47.8345C48.7294 35.6521 49.4549 34.956 49.4549 34.0974V33.8989C49.4549 33.0403 48.7294 32.3442 47.8345 32.3442Z" fill="white"/>
<path d="M47.8343 40.6138H20.0462C19.1513 40.6138 18.4258 41.3098 18.4258 42.1684V42.3669C18.4258 43.2255 19.1513 43.9216 20.0462 43.9216H47.8343C48.7292 43.9216 49.4547 43.2255 49.4547 42.3669V42.1684C49.4547 41.3098 48.7292 40.6138 47.8343 40.6138Z" fill="white"/>
<path d="M47.8343 24.0747H20.0462C19.1513 24.0747 18.4258 24.7708 18.4258 25.6294V25.8279C18.4258 26.6865 19.1513 27.3825 20.0462 27.3825H47.8343C48.7292 27.3825 49.4547 26.6865 49.4547 25.8279V25.6294C49.4547 24.7708 48.7292 24.0747 47.8343 24.0747Z" fill="white"/>
<defs>
<linearGradient id="paint0_linear" x1="33.9406" y1="0.477539" x2="33.9406" y2="67.5189" gradientUnits="userSpaceOnUse">
<stop stop-color="#F2BA55"/>
<stop offset="1" stop-color="#F0923A"/>
</linearGradient>
</defs>
</svg>
