<svg width="462" height="374" viewBox="0 0 462 374" fill="none" xmlns="http://www.w3.org/2000/svg">
<path d="M388.045 129.502H281.989V368.833H388.045V129.502Z" fill="white"/>
<path d="M392.214 373.002H277.82V125.456H392.214V373.002ZM286.158 364.787H383.999V133.671H286.158V364.787Z" fill="#4F76C1"/>
<path d="M74.7812 333.032H284.686V19.4C284.686 19.4 74.7812 -2.91466 74.7812 184.553V333.032Z" fill="white"/>
<path d="M288.855 337.2H70.6123V184.43C70.6123 131.709 87.0418 90.2674 119.288 61.2093C181.818 4.9322 280.885 14.7409 285.054 15.2313L288.732 15.5991V337.2H288.855ZM78.8271 328.863H280.517V23.2008C262.004 21.9747 178.017 19.5226 124.805 67.4623C94.2757 94.9266 78.8271 134.284 78.8271 184.553V328.863Z" fill="#4F76C1"/>
<path d="M242.632 334.379H180.225V366.135H242.632V334.379Z" fill="#A6BAE0"/>
<path d="M334.343 334.379H271.936V366.135H334.343V334.379Z" fill="#A6BAE0"/>
<path d="M150.92 334.379H88.5127V366.135H150.92V334.379Z" fill="#A6BAE0"/>
<path d="M362.665 328.862H58.7197V337.077H362.665V328.862Z" fill="#4F76C1"/>
<path d="M362.788 364.786H24.6348V373.001H362.788V364.786Z" fill="#4F76C1"/>
<path d="M215.413 333.031H207.198V368.955H215.413V333.031Z" fill="#4F76C1"/>
<path d="M169.68 333.031H161.465V368.955H169.68V333.031Z" fill="#4F76C1"/>
<path d="M261.392 333.031H253.177V368.955H261.392V333.031Z" fill="#4F76C1"/>
<path d="M307.124 333.031H298.909V368.955H307.124V333.031Z" fill="#4F76C1"/>
<path d="M261.392 333.031H253.177V368.955H261.392V333.031Z" fill="#4F76C1"/>
<path d="M353.102 333.031H344.888V368.955H353.102V333.031Z" fill="#4F76C1"/>
<path d="M123.825 333.031H115.61V368.955H123.825V333.031Z" fill="#4F76C1"/>
<path d="M78.0927 333.031H69.8779V368.955H78.0927V333.031Z" fill="#4F76C1"/>
<path d="M169.68 333.031H161.465V368.955H169.68V333.031Z" fill="#4F76C1"/>
<path d="M372.382 185.182V156.615H343.692V185.182H372.382Z" fill="#A6BAE0"/>
<path d="M372.367 225.996V197.429H343.677V225.996H372.367Z" fill="#A6BAE0"/>
<path d="M372.354 266.811V238.244H343.664V266.811H372.354Z" fill="#A6BAE0"/>
<path d="M372.462 307.625V279.058H343.772V307.625H372.462Z" fill="#A6BAE0"/>
<path d="M331.188 185.18V156.612H302.498V185.18H331.188Z" fill="#A6BAE0"/>
<path d="M331.174 225.993V197.426H302.483V225.993H331.174Z" fill="#A6BAE0"/>
<path d="M331.161 266.808V238.241H302.471V266.808H331.161Z" fill="#A6BAE0"/>
<path d="M331.269 307.622V279.055H302.578V307.622H331.269Z" fill="#A6BAE0"/>
<path d="M383.982 76.2236C401.289 68.991 409.456 49.0976 402.223 31.7906C394.991 14.4835 375.097 6.31666 357.79 13.5493C340.483 20.782 332.316 40.6754 339.549 57.9824C346.782 75.2894 366.675 83.4563 383.982 76.2236Z" fill="url(#paint0_linear)"/>
<path d="M457.072 77.5151C456.337 71.3847 451.187 66.603 444.934 66.603C444.199 66.603 443.463 66.7256 442.85 66.8482C441.501 54.5874 431.08 45.0239 418.451 45.0239C409.01 45.0239 400.918 50.2961 396.749 58.0204C396.136 57.8978 395.401 57.8978 394.788 57.8978C384.734 57.8978 376.642 65.9899 376.642 76.0438C376.642 76.5342 376.642 77.1473 376.764 77.6377H457.072V77.5151Z" fill="white"/>
<path d="M461.732 81.5617H373.086L372.718 77.7608C372.718 77.1478 372.596 76.5347 372.596 75.7991C372.596 63.6609 382.404 53.7296 394.543 53.607C399.815 45.6375 408.765 40.7332 418.451 40.7332C431.815 40.7332 443.218 49.8062 446.283 62.4348C454.007 63.0478 460.383 69.0556 461.241 76.9025L461.732 81.5617ZM381.056 73.3469H450.82C448.981 71.3852 446.161 70.4043 443.463 70.8948L439.172 71.6304L438.681 67.2165C437.578 56.7948 428.873 49.0705 418.451 49.0705C410.849 49.0705 403.983 53.2392 400.428 59.86L399.079 62.3122L396.259 62.067C395.769 62.067 395.278 61.9444 394.788 61.9444C388.044 61.9444 382.282 66.8487 381.056 73.3469Z" fill="#4F76C1"/>
<path d="M53.1909 264.493C56.2875 251.379 48.1667 238.237 35.0527 235.141C21.9386 232.044 8.79724 240.165 5.70064 253.279C2.60404 266.393 10.7248 279.534 23.8389 282.631C36.9529 285.728 50.0943 277.607 53.1909 264.493Z" fill="white"/>
<path d="M29.4153 287.42C13.7215 287.42 0.847656 274.669 0.847656 258.852C0.847656 243.159 13.5989 230.285 29.4153 230.285C45.2318 230.285 57.983 243.036 57.983 258.852C57.983 274.546 45.1092 287.42 29.4153 287.42ZM29.4153 238.499C18.258 238.499 9.18499 247.572 9.18499 258.73C9.18499 269.887 18.258 278.96 29.4153 278.96C40.5727 278.96 49.6457 269.887 49.6457 258.73C49.7683 247.695 40.5727 238.499 29.4153 238.499Z" fill="#4F76C1"/>
<path d="M33.4628 279.084H25.248V373.002H33.4628V279.084Z" fill="#4F76C1"/>
<path d="M46.5803 364.786H12.25V373.001H46.5803V364.786Z" fill="#4F76C1"/>
<path d="M46.5803 279.084H12.25V287.298H46.5803V279.084Z" fill="#4F76C1"/>
<path d="M33.4628 223.419H25.248V232.124H33.4628V223.419Z" fill="#4F76C1"/>
<path d="M388.046 117.485H284.688V136.735H388.046V117.485Z" fill="white"/>
<path d="M392.214 140.904H280.518V113.439H392.214V140.904ZM288.855 132.689H383.999V121.654H288.855V132.689Z" fill="#4F76C1"/>
<path d="M149.326 134.161H105.064V150.713H149.326V134.161Z" fill="#A6BAE0"/>
<path d="M149.203 146.544H105.064V154.759H149.203V146.544Z" fill="#4F76C1"/>
<path d="M205.237 134.161H160.976V150.713H205.237V134.161Z" fill="#A6BAE0"/>
<path d="M205.237 146.544H160.976V154.759H205.237V146.544Z" fill="#4F76C1"/>
<path d="M261.145 134.161H216.884V150.713H261.145V134.161Z" fill="#A6BAE0"/>
<path d="M261.023 146.544H216.884V154.758H261.023V146.544Z" fill="#4F76C1"/>
<path d="M261.022 106.82H122.843C122.843 106.82 159.012 49.4395 261.022 49.4395V106.82Z" fill="#A6BAE0"/>
<path d="M261.145 102.652H122.476V110.867H261.145V102.652Z" fill="#4F76C1"/>
<path d="M149.326 171.678H105.064V188.231H149.326V171.678Z" fill="#A6BAE0"/>
<path d="M149.203 184.062H105.064V192.277H149.203V184.062Z" fill="#4F76C1"/>
<path d="M205.237 171.678H160.976V188.231H205.237V171.678Z" fill="#A6BAE0"/>
<path d="M205.237 184.062H160.976V192.277H205.237V184.062Z" fill="#4F76C1"/>
<path d="M261.145 171.678H216.884V188.231H261.145V171.678Z" fill="#A6BAE0"/>
<path d="M261.023 184.062H216.884V192.277H261.023V184.062Z" fill="#4F76C1"/>
<path d="M149.326 209.074H105.064V225.626H149.326V209.074Z" fill="#A6BAE0"/>
<path d="M149.203 221.457H105.064V229.672H149.203V221.457Z" fill="#4F76C1"/>
<path d="M205.237 209.074H160.976V225.626H205.237V209.074Z" fill="#A6BAE0"/>
<path d="M205.237 221.457H160.976V229.672H205.237V221.457Z" fill="#4F76C1"/>
<path d="M261.145 209.074H216.884V225.626H261.145V209.074Z" fill="#A6BAE0"/>
<path d="M261.023 221.457H216.884V229.672H261.023V221.457Z" fill="#4F76C1"/>
<path d="M149.326 246.593H105.064V263.145H149.326V246.593Z" fill="#A6BAE0"/>
<path d="M149.203 258.975H105.064V267.19H149.203V258.975Z" fill="#4F76C1"/>
<path d="M205.237 246.593H160.976V263.145H205.237V246.593Z" fill="#A6BAE0"/>
<path d="M205.237 258.975H160.976V267.19H205.237V258.975Z" fill="#4F76C1"/>
<path d="M261.145 246.593H216.884V263.145H261.145V246.593Z" fill="#A6BAE0"/>
<path d="M261.023 258.975H216.884V267.19H261.023V258.975Z" fill="#4F76C1"/>
<path d="M149.326 284.11H105.064V300.662H149.326V284.11Z" fill="#A6BAE0"/>
<path d="M149.203 296.493H105.064V304.708H149.203V296.493Z" fill="#4F76C1"/>
<path d="M205.237 284.11H160.976V300.662H205.237V284.11Z" fill="#A6BAE0"/>
<path d="M205.237 296.493H160.976V304.708H205.237V296.493Z" fill="#4F76C1"/>
<path d="M261.145 284.11H216.884V300.662H261.145V284.11Z" fill="#A6BAE0"/>
<path d="M261.023 296.493H216.884V304.708H261.023V296.493Z" fill="#4F76C1"/>
<defs>
<linearGradient id="paint0_linear" x1="357.79" y1="13.5493" x2="383.982" y2="76.2236" gradientUnits="userSpaceOnUse">
<stop stop-color="#F3BC58"/>
<stop offset="1" stop-color="#F09039"/>
</linearGradient>
</defs>
</svg>
