<svg width="29" height="27" viewBox="0 0 29 27" fill="none" xmlns="http://www.w3.org/2000/svg">
<path d="M15.0358 24.9665L14.7836 11.2532L17.5526 12.0076L25.1434 21.3598L23.1723 25.302L15.0358 24.9665Z" fill="#8CA2CD"/>
<path d="M4.39889 12.7209C6.29546 12.7209 7.83293 11.1834 7.83293 9.28683C7.83293 7.39026 6.29546 5.85278 4.39889 5.85278C2.50232 5.85278 0.964844 7.39026 0.964844 9.28683C0.964844 11.1834 2.50232 12.7209 4.39889 12.7209Z" fill="#4F76C1"/>
<path d="M10.5802 7.226C12.4768 7.226 14.0143 5.68853 14.0143 3.79196C14.0143 1.89538 12.4768 0.35791 10.5802 0.35791C8.68365 0.35791 7.14618 1.89538 7.14618 3.79196C7.14618 5.68853 8.68365 7.226 10.5802 7.226Z" fill="#4F76C1"/>
<path d="M18.822 7.226C20.7186 7.226 22.2561 5.68853 22.2561 3.79196C22.2561 1.89538 20.7186 0.35791 18.822 0.35791C16.9255 0.35791 15.388 1.89538 15.388 3.79196C15.388 5.68853 16.9255 7.226 18.822 7.226Z" fill="#4F76C1"/>
<path d="M25.0034 12.7209C26.9 12.7209 28.4374 11.1834 28.4374 9.28683C28.4374 7.39026 26.9 5.85278 25.0034 5.85278C23.1068 5.85278 21.5693 7.39026 21.5693 9.28683C21.5693 11.1834 23.1068 12.7209 25.0034 12.7209Z" fill="#4F76C1"/>
<path d="M21.2766 17.2981L21.3024 17.3282L21.3304 17.3562C21.4404 17.4663 21.5502 17.5754 21.6592 17.6838C22.477 18.4965 23.2562 19.271 23.8358 20.1294C24.4583 21.0514 24.7844 21.9796 24.643 23.029C24.3032 24.1518 23.5245 25.1535 22.2236 25.449C22.1249 25.4649 21.8725 25.4676 21.385 25.4206C20.9877 25.3823 20.5173 25.3209 19.9692 25.2494C19.8647 25.2358 19.7573 25.2218 19.6471 25.2075C18.2937 25.0321 16.5859 24.8249 14.8122 24.8249H14.565C12.7903 24.8249 11.0815 25.0358 9.72887 25.2128C9.6319 25.2255 9.53715 25.238 9.4446 25.2501C8.88073 25.3243 8.39862 25.3877 7.99351 25.4263C7.49851 25.4733 7.25113 25.4675 7.16161 25.4508C5.85344 25.1571 5.07459 24.1645 4.73498 23.0323C4.59931 21.9903 4.92758 21.0648 5.55248 20.1429C6.1333 19.2861 6.91213 18.5121 7.72893 17.7003C7.83893 17.591 7.94962 17.481 8.06061 17.37L8.08663 17.344L8.11066 17.3161C8.88777 16.4154 9.58291 15.5961 10.2954 14.7563C10.6917 14.2892 11.0934 13.8158 11.5176 13.3185C12.1316 12.6137 12.7841 12.0398 13.4882 11.7984L13.497 11.7954L13.5056 11.7923C13.6063 11.7557 13.7029 11.7296 13.7961 11.7127L13.7961 11.7128L13.806 11.7108C14.0538 11.6632 14.3284 11.6602 14.7024 11.6602C15.0707 11.6602 15.3567 11.6623 15.605 11.7008C15.695 11.7178 15.7884 11.7433 15.8853 11.7785L15.894 11.7817L15.9028 11.7847C16.6111 12.0275 17.2791 12.6071 17.8697 13.3004L17.8696 13.3004L17.8737 13.3051C18.6463 14.2006 19.3315 15.0082 20.0399 15.8431C20.4383 16.3126 20.844 16.7908 21.2766 17.2981Z" stroke="#4F76C1" stroke-width="2"/>
</svg>
