<svg width="21" height="27" viewBox="0 0 21 27" fill="none" xmlns="http://www.w3.org/2000/svg">
<rect x="5.3418" y="4.96362" width="10.9399" height="5.30431" fill="#8CA2CD"/>
<path d="M4.17517 5.34052C4.17517 4.90781 4.34706 4.49282 4.65304 4.18685C4.95901 3.88088 5.374 3.70898 5.80671 3.70898H15.5959C16.0286 3.70898 16.4436 3.88088 16.7496 4.18685C17.0556 4.49282 17.2275 4.90781 17.2275 5.34052V10.2351C17.2275 10.6678 17.0556 11.0828 16.7496 11.3888C16.4436 11.6948 16.0286 11.8667 15.5959 11.8667H5.80671C5.374 11.8667 4.95901 11.6948 4.65304 11.3888C4.34706 11.0828 4.17517 10.6678 4.17517 10.2351V5.34052ZM5.80671 5.34052V10.2351H15.5959V5.34052H5.80671ZM10.7013 20.0243C11.134 20.0243 11.549 19.8525 11.855 19.5465C12.161 19.2405 12.3329 18.8255 12.3329 18.3928C12.3329 17.9601 12.161 17.5451 11.855 17.2391C11.549 16.9332 11.134 16.7613 10.7013 16.7613C10.2686 16.7613 9.85362 16.9332 9.54765 17.2391C9.24167 17.5451 9.06978 17.9601 9.06978 18.3928C9.06978 18.8255 9.24167 19.2405 9.54765 19.5465C9.85362 19.8525 10.2686 20.0243 10.7013 20.0243Z" fill="#4F76C1"/>
<path d="M15.596 18.3929C15.596 19.691 15.0803 20.936 14.1624 21.8539C13.2444 22.7718 11.9995 23.2875 10.7013 23.2875C9.40321 23.2875 8.15825 22.7718 7.24033 21.8539C6.32241 20.936 5.80673 19.691 5.80673 18.3929C5.80673 17.0948 6.32241 15.8498 7.24033 14.9319C8.15825 14.014 9.40321 13.4983 10.7013 13.4983C11.9995 13.4983 13.2444 14.014 14.1624 14.9319C15.0803 15.8498 15.596 17.0948 15.596 18.3929ZM10.7013 21.656C11.5668 21.656 12.3967 21.3122 13.0087 20.7002C13.6206 20.0883 13.9644 19.2583 13.9644 18.3929C13.9644 17.5275 13.6206 16.6975 13.0087 16.0856C12.3967 15.4736 11.5668 15.1298 10.7013 15.1298C9.83592 15.1298 9.00595 15.4736 8.394 16.0856C7.78206 16.6975 7.43827 17.5275 7.43827 18.3929C7.43827 19.2583 7.78206 20.0883 8.394 20.7002C9.00595 21.3122 9.83592 21.656 10.7013 21.656Z" fill="#4F76C1"/>
<path d="M0.912109 3.70912C0.912109 2.8437 1.2559 2.01372 1.86784 1.40178C2.47979 0.789832 3.30976 0.446045 4.17518 0.446045L17.2275 0.446045C18.0929 0.446045 18.9229 0.789832 19.5348 1.40178C20.1468 2.01372 20.4905 2.8437 20.4905 3.70912V23.2876C20.4905 24.153 20.1468 24.983 19.5348 25.5949C18.9229 26.2068 18.0929 26.5506 17.2275 26.5506H4.17518C3.30976 26.5506 2.47979 26.2068 1.86784 25.5949C1.2559 24.983 0.912109 24.153 0.912109 23.2876V3.70912ZM4.17518 2.07758C3.74247 2.07758 3.32748 2.24947 3.02151 2.55545C2.71554 2.86142 2.54365 3.27641 2.54365 3.70912V23.2876C2.54365 23.7203 2.71554 24.1353 3.02151 24.4412C3.32748 24.7472 3.74247 24.9191 4.17518 24.9191H17.2275C17.6602 24.9191 18.0752 24.7472 18.3811 24.4412C18.6871 24.1353 18.859 23.7203 18.859 23.2876V3.70912C18.859 3.27641 18.6871 2.86142 18.3811 2.55545C18.0752 2.24947 17.6602 2.07758 17.2275 2.07758H4.17518Z" fill="#4F76C1"/>
</svg>
