<svg width="27" height="27" viewBox="0 0 27 27" fill="none" xmlns="http://www.w3.org/2000/svg">
<path d="M2.01808 0.939941L0.705078 2.25294L3.01808 6.25294L4.51808 6.03294L13.6741 15.1899L12.8931 15.9399C12.4931 16.3399 12.4931 16.9459 12.8931 17.3459L13.2991 17.7529C13.6991 18.1529 14.3111 18.1529 14.6111 17.7529L15.7991 18.9399C15.6991 19.5399 15.7991 20.2529 16.2991 20.7529L21.7051 26.1279C22.8051 27.2279 24.6051 27.2279 25.7051 26.1279C27.0051 24.9279 26.9931 23.1339 25.8931 22.0339L20.5181 16.6269C20.0181 16.1269 19.3051 15.9269 18.7051 16.1269L17.3921 14.9399C17.6921 14.5399 17.6921 13.9279 17.3921 13.6269L17.0171 13.2529C16.9262 13.1581 16.817 13.0827 16.6962 13.0312C16.5754 12.9796 16.4454 12.9531 16.3141 12.9531C16.1827 12.9531 16.0527 12.9796 15.9319 13.0312C15.8111 13.0827 15.702 13.1581 15.6111 13.2529L14.9551 13.9089L5.79908 4.75294L6.01708 3.25294L2.01808 0.939941ZM21.5181 0.970941C19.5451 0.806941 16.9291 2.11494 15.7051 3.25194C14.1991 4.75794 14.4451 6.72694 15.6421 8.62794L13.5181 10.7529L15.0181 12.4399C15.8181 11.7399 16.9981 11.7399 17.7981 12.4399L18.2051 12.8459L18.2991 12.9399L19.1741 12.0649C20.9821 13.1279 22.8641 13.2809 24.2991 11.8459C25.6991 10.5459 27.2171 7.33994 26.5171 5.43994L23.7051 8.34594C23.3051 8.74594 22.6991 8.74594 22.2991 8.34594L19.3921 5.43994C19.2973 5.34903 19.2218 5.23989 19.1703 5.11908C19.1188 4.99827 19.0922 4.86828 19.0922 4.73694C19.0922 4.6056 19.1188 4.47561 19.1703 4.3548C19.2218 4.23399 19.2973 4.12485 19.3921 4.03394L22.3001 1.12794C22.0501 1.03994 21.8001 0.994941 21.5181 0.970941ZM10.5181 13.4399L6.89208 17.0649C6.50244 16.9784 6.10421 16.9364 5.70508 16.9399C2.90508 16.9399 0.705078 19.1399 0.705078 21.9399C0.705078 24.7399 2.90508 26.9399 5.70508 26.9399C8.50508 26.9399 10.7051 24.7399 10.7051 21.9399C10.7051 21.4269 10.6241 20.9339 10.4861 20.4709L12.6111 18.3459L12.2991 17.9399C11.4991 17.1399 11.5051 15.9279 12.2051 15.1269L10.5181 13.4399ZM18.2681 18.0029C18.3931 18.0029 18.5111 18.0269 18.6111 18.1279L24.5181 24.0339C24.7181 24.2339 24.7181 24.5519 24.5181 24.7519C24.3181 24.9519 23.9981 24.9519 23.7981 24.7519L17.8931 18.8459C17.6931 18.6459 17.6931 18.3279 17.8931 18.1279C17.9931 18.0279 18.1431 18.0029 18.2681 18.0029ZM6.39308 19.3449L8.29908 21.2519L7.61108 23.8449L5.01808 24.5329L3.11108 22.6259L3.79908 20.0329L6.39308 19.3449Z" fill="#4F76C1"/>
</svg>
